<svg xmlns="http://www.w3.org/2000/svg" viewBox="19.999999999999957 159.67010180605874 535.0017010887029 255.6597963878825"> <g transform="rotate(0 177.61487121073895 287.5)"><svg xmlns="http://www.w3.org/2000/svg" xmlns:xlink="http://www.w3.org/1999/xlink" version="1.1" id="Layer_1" x="89.99999999999996" y="229.67010180605874" viewBox="87.38082122802734 58.54000473022461 328.21917724609375 216.63998413085938" xml:space="preserve" height="115.65979638788251" width="175.229742421478" preserveAspectRatio="xMinYMin" enable-background="new 0 0 490 324" style="overflow: visible;"><linearGradient id="SVGID_1_" gradientUnits="userSpaceOnUse" x1="77.6253" y1="200.8116" x2="77.6253" y2="249.2698" gradientTransform="matrix(1.3536 0 0 -1.3536 89.8121 560.6768)" style=""><stop offset="0" style="stop-color: #FFC577;"></stop><stop offset="1" style="stop-color: #9900CC;"></stop></linearGradient><path class="st0" d="M247.91,220.8c6.35-3.63,10.88-6.35,14.5-8.16c-7.25,0-14.5,0-21.75-0.91c-14.5-0.91-30.82-3.63-47.13-8.16  c-42.6,25.38-58.01,49.85-63.45,62.54c-0.91,2.72-1.81,4.53-1.81,6.35c-0.91,1.81-0.91,2.72-0.91,2.72  C145.48,275.19,214.37,238.02,247.91,220.8z" style="fill: url(#SVGID_1_);"></path><linearGradient id="SVGID_2_" gradientUnits="userSpaceOnUse" x1="96.6277" y1="286.6544" x2="114.267" y2="250.4162" gradientTransform="matrix(1.3536 0 0 -1.3536 89.8121 560.6768)" style=""><stop offset="0" style="stop-color: #99FFFF;"></stop><stop offset="1" style="stop-color: #9900CC;"></stop></linearGradient><path class="st1" d="M236.47,181.58c-2.72-0.91-7.73-1.79-10.31-2.48c-9.97,9.06-20.85,17.22-32.63,24.47  c16.32,4.53,31.73,7.25,46.23,8.16c8.16,0.91,15.41,0.91,22.66,0.91c11.78-5.44,15.41-9.97,12.69-14.5  C272.39,191.79,258.22,187.02,236.47,181.58z" style="fill: url(#SVGID_2_);"></path><linearGradient id="SVGID_3_" gradientUnits="userSpaceOnUse" x1="89.311" y1="262.5882" x2="0.0123" y2="325.542" gradientTransform="matrix(1.3536 0 0 -1.3536 89.8121 560.6768)" style=""><stop offset="0" style="stop-color: #C555FF;"></stop><stop offset="1" style="stop-color: #BFFFF6;"></stop></linearGradient><path class="st2" d="M157.44,150.11c-5.44-5.44-9.97-10.88-12.69-16.32c-21.75-3.63-52.57-29.01-56.2-31.73  c-0.91,4.53-11.78,66.17,56.2,87.92c16.32,5.44,33.54,10.88,48.95,13.6c12.69-7.25,22.66-15.41,32.63-24.47  C200.95,172.77,171.94,163.71,157.44,150.11z" style="fill: url(#SVGID_3_);"></path><linearGradient id="SVGID_4_" gradientUnits="userSpaceOnUse" x1="70.7706" y1="361.8066" x2="109.5158" y2="277.833" gradientTransform="matrix(1.3536 0 0 -1.3536 89.8121 560.6768)" style=""><stop offset="0" style="stop-color: #99FFFF;"></stop><stop offset="0.881" style="stop-color: #E600E2;"></stop></linearGradient><path class="st3" d="M284.17,131.97c-19.94-16.32-45.32-24.47-68.89-31.73c-29.91-9.97-48.95-19.94-73.42-41.7  c-1.81,3.63-20.85,58.01,15.41,91.55c15.41,13.6,43.51,22.66,68.89,29.01c4.53-3.63,9.06-8.16,13.6-11.78  C253.35,154.63,267.85,141.94,284.17,131.97z" style="fill: url(#SVGID_4_);"></path><linearGradient id="SVGID_5_" gradientUnits="userSpaceOnUse" x1="194.9755" y1="146.3014" x2="104.8194" y2="101.2023" style=""><stop offset="0.0289" style="stop-color: #8503B0;"></stop><stop offset="0.8844" style="stop-color: #73ECFF;"></stop></linearGradient><path class="st4" d="M144.3,133.79c2.72,5.44,7.45,10.92,12.89,16.36c14.5,13.6,43.77,22.66,69.15,29.01l18.77-16.32  C234.23,117.52,195.97,138.32,144.3,133.79z" style="fill: url(#SVGID_5_);"></path><linearGradient id="SVGID_6_" gradientUnits="userSpaceOnUse" x1="345.9367" y1="105.6931" x2="337.1352" y2="211.038" style=""><stop offset="0" style="stop-color: #FFC577;"></stop><stop offset="1" style="stop-color: #9900CC;"></stop></linearGradient><path class="st5" d="M302.3,151.91c28.1,44.42-29.01,58.92-39.88,60.73c18.13,0,36.26-1.81,49.85-7.25  c22.66-8.16,32.63-19.94,40.79-29.01c6.35-7.25,11.78-14.5,22.66-17.22c20.85-4.53,36.26,3.63,39.88,5.44  c-5.44-7.25-46.23-63.45-106.96-42.6c-9.06,2.72-17.22,6.35-24.47,9.97C291.42,138.31,296.86,143.75,302.3,151.91z" style="fill: url(#SVGID_6_);"></path><linearGradient id="SVGID_7_" gradientUnits="userSpaceOnUse" x1="128.6283" y1="292.8788" x2="165.6461" y2="253.7939" gradientTransform="matrix(1.3536 0 0 -1.3536 89.8121 560.6768)" style=""><stop offset="0.0289" style="stop-color: #8503B0;"></stop><stop offset="0.8844" style="stop-color: #FF00FF;"></stop></linearGradient><path class="st6" d="M262.41,212.64c10.87-1.12,69.8-16.32,39.88-60.73c-4.78-7.71-10.88-13.6-18.13-19.94  c-16.32,9.97-30.82,22.66-44.42,35.35c-4.53,3.63-9.06,8.16-13.6,11.78c9.97,2.72,44.42,10.88,48.95,19.04  C276.92,202.67,273.29,207.2,262.41,212.64z" style="fill: url(#SVGID_7_);"></path></svg></g> <g transform="rotate(0 386.6817013938786 309.0129285035385)"><svg xmlns="http://www.w3.org/2000/svg" y="305.5429282365097" viewBox="0.9900000095367432 2.490000009536743 196.63999938964844 6.940000534057617" x="288.3617016990544" height="6.940000534057617" width="196.63999938964844" style="overflow: visible;"><g fill="#ffffff" fill-opacity="1" style=""><path d="M1.91 2.56L1.91 9.35L0.99 9.35L0.99 2.56L1.91 2.56ZM11.13 6.90L11.13 6.90Q11.20 7.01 11.25 7.14Q11.30 7.26 11.35 7.39L11.35 7.39Q11.39 7.26 11.44 7.14Q11.50 7.02 11.56 6.89L11.56 6.89L13.86 2.72Q13.92 2.61 13.99 2.59Q14.05 2.56 14.18 2.56L14.18 2.56L14.86 2.56L14.86 9.35L14.05 9.35L14.05 4.36Q14.05 4.26 14.05 4.15Q14.06 4.04 14.07 3.92L14.07 3.92L11.74 8.16Q11.62 8.37 11.41 8.37L11.41 8.37L11.28 8.37Q11.07 8.37 10.95 8.16L10.95 8.16L8.57 3.90Q8.58 4.03 8.59 4.14Q8.60 4.26 8.60 4.36L8.60 4.36L8.60 9.35L7.79 9.35L7.79 2.56L8.47 2.56Q8.59 2.56 8.66 2.59Q8.73 2.61 8.79 2.72L8.79 2.72L11.13 6.90ZM23.44 2.56L26.15 9.35L25.44 9.35Q25.32 9.35 25.24 9.29Q25.17 9.23 25.13 9.13L25.13 9.13L24.50 7.49L21.45 7.49L20.81 9.13Q20.78 9.22 20.70 9.28Q20.62 9.35 20.50 9.35L20.50 9.35L19.79 9.35L22.51 2.56L23.44 2.56ZM22.77 4.07L21.71 6.83L24.24 6.83L23.17 4.07Q23.07 3.81 22.97 3.43L22.97 3.43Q22.92 3.62 22.87 3.79Q22.82 3.95 22.77 4.07L22.77 4.07ZM33.90 8.68L33.90 8.68Q34.17 8.68 34.40 8.66Q34.63 8.63 34.84 8.58Q35.04 8.53 35.22 8.45Q35.40 8.38 35.58 8.28L35.58 8.28L35.58 6.79L34.53 6.79Q34.44 6.79 34.38 6.74Q34.33 6.68 34.33 6.61L34.33 6.61L34.33 6.09L36.41 6.09L36.41 8.69Q36.16 8.88 35.88 9.01Q35.60 9.15 35.29 9.24Q34.97 9.34 34.61 9.38Q34.25 9.43 33.83 9.43L33.83 9.43Q33.09 9.43 32.48 9.17Q31.86 8.92 31.42 8.46Q30.97 8.01 30.72 7.37Q30.47 6.73 30.47 5.96L30.47 5.96Q30.47 5.18 30.72 4.54Q30.96 3.90 31.41 3.45Q31.87 2.99 32.51 2.74Q33.15 2.49 33.95 2.49L33.95 2.49Q34.35 2.49 34.69 2.55Q35.04 2.61 35.34 2.72Q35.63 2.83 35.88 2.99Q36.13 3.15 36.35 3.34L36.35 3.34L36.09 3.76Q36.01 3.89 35.88 3.89L35.88 3.89Q35.81 3.89 35.72 3.84L35.72 3.84Q35.60 3.77 35.45 3.68Q35.31 3.58 35.09 3.49Q34.88 3.41 34.60 3.34Q34.31 3.28 33.92 3.28L33.92 3.28Q33.34 3.28 32.88 3.47Q32.42 3.66 32.09 4.00Q31.76 4.35 31.59 4.85Q31.41 5.34 31.41 5.96L31.41 5.96Q31.41 6.60 31.59 7.11Q31.78 7.61 32.11 7.96Q32.44 8.31 32.89 8.50Q33.35 8.68 33.90 8.68ZM42.97 2.56L42.97 9.35L42.06 9.35L42.06 2.56L42.97 2.56ZM49.33 2.56L49.33 2.56Q49.45 2.56 49.51 2.59Q49.57 2.62 49.64 2.72L49.64 2.72L53.58 7.83Q53.56 7.71 53.56 7.60Q53.55 7.48 53.55 7.37L53.55 7.37L53.55 2.56L54.36 2.56L54.36 9.35L53.89 9.35Q53.78 9.35 53.71 9.31Q53.64 9.27 53.57 9.18L53.57 9.18L49.64 4.07Q49.65 4.19 49.65 4.31Q49.66 4.42 49.66 4.51L49.66 4.51L49.66 9.35L48.85 9.35L48.85 2.56L49.33 2.56ZM62.95 2.56L65.66 9.35L64.95 9.35Q64.83 9.35 64.75 9.29Q64.68 9.23 64.64 9.13L64.64 9.13L64.00 7.49L60.96 7.49L60.32 9.13Q60.29 9.22 60.21 9.28Q60.13 9.35 60.01 9.35L60.01 9.35L59.30 9.35L62.01 2.56L62.95 2.56ZM62.28 4.07L61.21 6.83L63.75 6.83L62.68 4.07Q62.58 3.81 62.48 3.43L62.48 3.43Q62.43 3.62 62.38 3.79Q62.33 3.95 62.28 4.07L62.28 4.07ZM69.26 2.56L74.58 2.56L74.58 3.33L72.38 3.33L72.38 9.35L71.46 9.35L71.46 3.33L69.26 3.33L69.26 2.56ZM80.69 2.56L80.69 9.35L79.77 9.35L79.77 2.56L80.69 2.56ZM92.88 5.96L92.88 5.96Q92.88 6.72 92.63 7.36Q92.39 8.00 91.95 8.46Q91.51 8.91 90.89 9.17Q90.28 9.42 89.53 9.42L89.53 9.42Q88.78 9.42 88.16 9.17Q87.55 8.91 87.11 8.46Q86.67 8.00 86.42 7.36Q86.18 6.72 86.18 5.96L86.18 5.96Q86.18 5.20 86.42 4.56Q86.67 3.92 87.11 3.46Q87.55 3.00 88.16 2.74Q88.78 2.49 89.53 2.49L89.53 2.49Q90.28 2.49 90.89 2.74Q91.51 3.00 91.95 3.46Q92.39 3.92 92.63 4.56Q92.88 5.20 92.88 5.96ZM91.93 5.96L91.93 5.96Q91.93 5.33 91.76 4.84Q91.59 4.34 91.28 4.00Q90.97 3.65 90.52 3.47Q90.08 3.28 89.53 3.28L89.53 3.28Q88.98 3.28 88.54 3.47Q88.09 3.65 87.78 4.00Q87.46 4.34 87.29 4.84Q87.12 5.33 87.12 5.96L87.12 5.96Q87.12 6.58 87.29 7.08Q87.46 7.57 87.78 7.92Q88.09 8.26 88.54 8.44Q88.98 8.63 89.53 8.63L89.53 8.63Q90.08 8.63 90.52 8.44Q90.97 8.26 91.28 7.92Q91.59 7.57 91.76 7.08Q91.93 6.58 91.93 5.96ZM98.66 2.56L98.66 2.56Q98.79 2.56 98.85 2.59Q98.91 2.62 98.98 2.72L98.98 2.72L102.91 7.83Q102.90 7.71 102.89 7.60Q102.89 7.48 102.89 7.37L102.89 7.37L102.89 2.56L103.70 2.56L103.70 9.35L103.23 9.35Q103.12 9.35 103.05 9.31Q102.98 9.27 102.90 9.18L102.90 9.18L98.98 4.07Q98.99 4.19 98.99 4.31Q99.00 4.42 99.00 4.51L99.00 4.51L99.00 9.35L98.19 9.35L98.19 2.56L98.66 2.56ZM121.18 5.96L121.18 5.96Q121.18 6.72 120.94 7.35Q120.70 7.97 120.26 8.42Q119.82 8.86 119.20 9.11Q118.59 9.35 117.84 9.35L117.84 9.35L115.30 9.35L115.30 2.56L117.84 2.56Q118.59 2.56 119.20 2.81Q119.82 3.05 120.26 3.50Q120.70 3.95 120.94 4.57Q121.18 5.20 121.18 5.96ZM120.24 5.96L120.24 5.96Q120.24 5.33 120.07 4.84Q119.90 4.35 119.59 4.01Q119.28 3.67 118.83 3.49Q118.39 3.31 117.84 3.31L117.84 3.31L116.23 3.31L116.23 8.61L117.84 8.61Q118.39 8.61 118.83 8.43Q119.28 8.25 119.59 7.91Q119.90 7.57 120.07 7.08Q120.24 6.58 120.24 5.96ZM126.50 2.56L130.68 2.56L130.68 3.31L127.42 3.31L127.42 5.57L130.06 5.57L130.06 6.29L127.42 6.29L127.42 8.60L130.68 8.60L130.68 9.35L126.50 9.35L126.50 2.56ZM136.98 2.56L136.98 8.58L139.92 8.58L139.92 9.35L136.06 9.35L136.06 2.56L136.98 2.56ZM146.08 2.56L146.08 9.35L145.16 9.35L145.16 2.56L146.08 2.56ZM153.94 9.35L151.17 2.56L151.91 2.56Q152.03 2.56 152.10 2.62Q152.18 2.69 152.22 2.78L152.22 2.78L154.14 7.57Q154.20 7.73 154.26 7.92Q154.31 8.11 154.36 8.31L154.36 8.31Q154.41 8.11 154.46 7.92Q154.51 7.73 154.57 7.57L154.57 7.57L156.48 2.78Q156.51 2.70 156.59 2.63Q156.68 2.56 156.79 2.56L156.79 2.56L157.53 2.56L154.77 9.35L153.94 9.35ZM162.46 2.56L166.64 2.56L166.64 3.31L163.38 3.31L163.38 5.57L166.02 5.57L166.02 6.29L163.38 6.29L163.38 8.60L166.64 8.60L166.64 9.35L162.46 9.35L162.46 2.56ZM173.73 6.52L173.03 6.52L173.03 9.35L172.12 9.35L172.12 2.56L174.04 2.56Q174.68 2.56 175.15 2.69Q175.62 2.82 175.92 3.07Q176.23 3.32 176.38 3.66Q176.52 4.01 176.52 4.44L176.52 4.44Q176.52 4.80 176.41 5.12Q176.30 5.43 176.08 5.68Q175.87 5.93 175.56 6.10Q175.24 6.28 174.85 6.37L174.85 6.37Q175.02 6.47 175.15 6.66L175.15 6.66L177.13 9.35L176.32 9.35Q176.07 9.35 175.95 9.16L175.95 9.16L174.19 6.73Q174.11 6.62 174.01 6.57Q173.92 6.52 173.73 6.52L173.73 6.52ZM173.03 3.29L173.03 5.85L173.99 5.85Q174.40 5.85 174.70 5.75Q175.01 5.66 175.21 5.48Q175.42 5.30 175.52 5.05Q175.63 4.81 175.63 4.51L175.63 4.51Q175.63 3.90 175.23 3.60Q174.83 3.29 174.04 3.29L174.04 3.29L173.03 3.29ZM182.18 2.56L186.37 2.56L186.37 3.31L183.11 3.31L183.11 5.57L185.75 5.57L185.75 6.29L183.11 6.29L183.11 8.60L186.37 8.60L186.37 9.35L182.18 9.35L182.18 2.56ZM197.63 5.96L197.63 5.96Q197.63 6.72 197.39 7.35Q197.15 7.97 196.71 8.42Q196.27 8.86 195.65 9.11Q195.04 9.35 194.29 9.35L194.29 9.35L191.75 9.35L191.75 2.56L194.29 2.56Q195.04 2.56 195.65 2.81Q196.27 3.05 196.71 3.50Q197.15 3.95 197.39 4.57Q197.63 5.20 197.63 5.96ZM196.69 5.96L196.69 5.96Q196.69 5.33 196.52 4.84Q196.35 4.35 196.04 4.01Q195.72 3.67 195.28 3.49Q194.83 3.31 194.29 3.31L194.29 3.31L192.67 3.31L192.67 8.61L194.29 8.61Q194.83 8.61 195.28 8.43Q195.72 8.25 196.04 7.91Q196.35 7.57 196.52 7.08Q196.69 6.58 196.69 5.96Z" transform="translate(0, 0)"></path></g></svg></g> <g transform="rotate(0 371.5267026145817 279.8674843616871)"><svg xmlns="http://www.w3.org/2000/svg" y="262.5174839802174" viewBox="4.389999866485596 10.109999656677246 166.3300018310547 34.70000076293945" x="288.3617016990544" height="34.70000076293945" width="166.3300018310547" style="overflow: visible;"><g fill="#ffffff" fill-opacity="1" style=""><path d="M7.78 10.76L7.78 32.27Q7.78 36.61 10.02 39.13L10.02 39.13Q12.54 41.92 16.75 41.92L16.75 41.92Q21.05 41.92 23.57 39.13L23.57 39.13Q24.71 37.89 25.24 36.18Q25.77 34.46 25.77 32.27L25.77 32.27L25.77 10.76Q25.77 10.11 26.41 10.11L26.41 10.11L28.51 10.11Q29.15 10.11 29.15 10.76L29.15 10.76L29.15 32.27Q29.15 35.61 28.05 38.15Q26.96 40.69 24.90 42.29L24.90 42.29Q21.56 44.81 16.75 44.81L16.75 44.81Q11.99 44.81 8.65 42.29L8.65 42.29Q4.39 39.13 4.39 32.27L4.39 32.27L4.39 10.76Q4.39 10.11 5.03 10.11L5.03 10.11L7.14 10.11Q7.78 10.11 7.78 10.76L7.78 10.76ZM62.61 13.04L53.09 13.04L53.09 43.43Q53.09 44.07 52.45 44.07L52.45 44.07L50.35 44.07Q49.70 44.07 49.70 43.43L49.70 43.43L49.70 13.04L40.28 13.04Q39.64 13.04 39.64 12.40L39.64 12.40L39.64 10.85Q39.64 10.21 40.28 10.21L40.28 10.21L62.61 10.21Q63.25 10.21 63.25 10.85L63.25 10.85L63.25 12.40Q63.25 13.04 62.61 13.04L62.61 13.04ZM97.85 10.76L97.85 43.43Q97.85 44.07 97.21 44.07L97.21 44.07L95.15 44.07Q94.51 44.07 94.51 43.43L94.51 43.43L94.51 28.01L77.17 28.01L77.17 43.43Q77.17 44.07 76.53 44.07L76.53 44.07L74.47 44.07Q73.83 44.07 73.83 43.43L73.83 43.43L73.83 10.76Q73.83 10.11 74.47 10.11L74.47 10.11L76.53 10.11Q77.17 10.11 77.17 10.76L77.17 10.76L77.17 25.13L94.51 25.13L94.51 10.76Q94.51 10.11 95.15 10.11L95.15 10.11L97.21 10.11Q97.85 10.11 97.85 10.76L97.85 10.76ZM115.47 43.43Q115.47 44.07 114.83 44.07L114.83 44.07L112.64 44.07Q112.00 44.07 112.00 43.43L112.00 43.43L112.00 10.85Q112.00 10.21 112.64 10.21L112.64 10.21L114.83 10.21Q115.47 10.21 115.47 10.85L115.47 10.85L115.47 43.43ZM131.86 43.43Q131.86 44.07 131.22 44.07L131.22 44.07L129.16 44.07Q128.52 44.07 128.52 43.43L128.52 43.43L128.52 11.40Q128.52 10.43 128.68 10.27Q128.84 10.11 129.80 10.11L129.80 10.11L131.91 10.11Q132.50 10.11 132.71 10.23Q132.91 10.34 133.14 10.76L133.14 10.76L150.40 40.37L150.40 10.76Q150.40 10.11 151.04 10.11L151.04 10.11L153.05 10.11Q153.69 10.11 153.69 10.76L153.69 10.76L153.69 42.79Q153.69 43.75 153.53 43.91Q153.37 44.07 152.41 44.07L152.41 44.07L149.62 44.07Q149.25 44.07 149.09 43.98Q148.93 43.89 148.70 43.52L148.70 43.52L131.86 14.42L131.86 43.43ZM170.72 43.43Q170.72 44.07 170.08 44.07L170.08 44.07L167.88 44.07Q167.24 44.07 167.24 43.43L167.24 43.43L167.24 10.85Q167.24 10.21 167.88 10.21L167.88 10.21L170.08 10.21Q170.72 10.21 170.72 10.85L170.72 10.85L170.72 43.43Z" transform="translate(0, 0)"></path></g></svg></g></svg>